<svg aria-hidden="true" focusable="false" role="presentation" class="icon icon-pinterest" viewBox="0 0 1945 2500">
    <path d="M847.5 8.3C432.1 54.7 18.1 390.8 1 870.9c-10.7 293.2 72.5 513.1 351.5 574.8 121.1-213.6-39.1-260.7-64-415.2-102.3-633.2 730.3-1065 1166-622.9 301.5 306.1 103 1247.8-383.2 1149.9-465.7-93.5 228-843.1-143.8-990.3C625.3 447.6 464.7 933.1 608 1174.3 524 1589 343.2 1979.8 416.4 2500 654 2327.7 734 1997.7 799.7 1653.5c119.4 72.5 183.1 147.9 335.4 159.6 561.7 43.4 875.3-560.7 798.7-1117.9C1865.6 201.1 1372.6-50.3 847.5 8.3z"></path>
</svg>