<svg aria-hidden="true" focusable="false" role="presentation" class="icon icon-cart" viewBox="0 0 18 18">
<style>.st0{fill:#070707}</style>
    <path class="st0" d="M17.9 2.1l-1.3 5.6c-.2.8-.8 1.3-1.6 1.3H4.5v2.2h11.2c.6 0 1.1.5 1.1 1.1 0 .6-.5 1.1-1.1 1.1H3.9c-.9 0-1.7-.8-1.7-1.7V2.2H1.1C.5 2.2 0 1.7 0 1.1 0 .5.5 0 1.1 0h15.2c1.1 0 1.9 1 1.6 2.1zM5.1 14.6c.9 0 1.7.8 1.7 1.7 0 .9-.8 1.7-1.7 1.7-.9 0-1.7-.8-1.7-1.7 0-.9.7-1.7 1.7-1.7zm9 0c.9 0 1.7.8 1.7 1.7 0 .9-.8 1.7-1.7 1.7s-1.7-.8-1.7-1.7c0-.9.7-1.7 1.7-1.7z">
    </path>
</svg>